<svg width="1200" height="1200" viewBox="0 0 1200 1200" fill="none" xmlns="http://www.w3.org/2000/svg">
  <rect width="1200" height="1200" rx="80" fill="#0A0A0A"/>

  <defs>
    <linearGradient id="bgGlow" x1="180" y1="120" x2="1040" y2="1080" gradientUnits="userSpaceOnUse">
      <stop stop-color="#1F1F1F"/>
      <stop offset="1" stop-color="#050505"/>
    </linearGradient>
    <linearGradient id="line" x1="246" y1="953" x2="954" y2="245" gradientUnits="userSpaceOnUse">
      <stop stop-color="#2B2B2B"/>
      <stop offset="0.5" stop-color="#F5F5F5"/>
      <stop offset="1" stop-color="#2B2B2B"/>
    </linearGradient>
    <radialGradient id="halo" cx="0" cy="0" r="1" gradientUnits="userSpaceOnUse" gradientTransform="translate(600 600) rotate(90) scale(360)">
      <stop stop-color="#FFFFFF" stop-opacity="0.16"/>
      <stop offset="1" stop-color="#FFFFFF" stop-opacity="0"/>
    </radialGradient>
  </defs>

  <rect x="40" y="40" width="1120" height="1120" rx="64" fill="url(#bgGlow)" stroke="#1C1C1C" stroke-width="2"/>

  <circle cx="600" cy="600" r="360" fill="url(#halo)"/>
  <circle cx="600" cy="600" r="286" stroke="url(#line)" stroke-width="2" opacity="0.6"/>
  <circle cx="600" cy="600" r="220" stroke="#2A2A2A" stroke-width="2" opacity="0.85"/>

  <path d="M250 950L950 250" stroke="url(#line)" stroke-width="2" opacity="0.65"/>
  <path d="M250 250L950 950" stroke="#242424" stroke-width="2" opacity="0.5"/>
  <path d="M180 600H1020" stroke="#202020" stroke-width="2" opacity="0.55"/>
  <path d="M600 180V1020" stroke="#202020" stroke-width="2" opacity="0.55"/>

  <rect x="330" y="330" width="540" height="540" rx="44" fill="#050505" stroke="#2B2B2B" stroke-width="2"/>

  <path
    d="M600 664.905L741.83 419.682H458.17L600 664.905ZM438.912 529.095L297.082 774.318H580.591L438.912 529.095ZM761.088 529.095L619.409 774.318H902.918L761.088 529.095Z"
    fill="white"
  />

  <g opacity="0.92">
    <rect x="270" y="928" width="660" height="74" rx="20" fill="#101010" stroke="#222222" stroke-width="2"/>
    <rect x="294" y="952" width="222" height="10" rx="5" fill="#F5F5F5" fill-opacity="0.92"/>
    <rect x="294" y="973" width="144" height="10" rx="5" fill="#5A5A5A"/>
    <rect x="702" y="948" width="204" height="34" rx="17" fill="#FFFFFF" fill-opacity="0.08" stroke="#3A3A3A" stroke-width="2"/>
    <rect x="720" y="960" width="98" height="10" rx="5" fill="#EDEDED" fill-opacity="0.82"/>
  </g>
</svg>
